<svg xmlns="http://www.w3.org/2000/svg" viewBox="0 0 1789.59 208.53"><defs><style>.cls-1,.cls-3{fill:#ccc;}.cls-1,.cls-2{opacity:0.67;}.cls-2,.cls-4,.cls-5{fill:#b3b3b3;}.cls-4{stroke:#b3b3b3;}.cls-11,.cls-12,.cls-13,.cls-14,.cls-15,.cls-16,.cls-17,.cls-4,.cls-6,.cls-7,.cls-8,.cls-9{stroke-miterlimit:10;}.cls-11,.cls-13,.cls-14,.cls-15,.cls-4,.cls-7{stroke-width:0.25px;}.cls-10,.cls-17,.cls-6,.cls-9{fill:none;}.cls-17,.cls-6,.cls-7,.cls-8,.cls-9{stroke:#000;}.cls-6{stroke-linecap:round;stroke-width:2px;}.cls-11{fill:#333;stroke:#333;}.cls-12,.cls-16{fill:#1a1a1a;}.cls-12,.cls-13,.cls-16{stroke:#1a1a1a;}.cls-12{stroke-width:0.75px;}.cls-14{fill:#666;stroke:#666;}.cls-15{fill:#4d4d4d;stroke:#4d4d4d;}.cls-17{stroke-width:4px;}.cls-18{font-size:103.41px;font-family:HansonBold, Hanson;letter-spacing:0.03em;}.cls-19{letter-spacing:-0.12em;}.cls-20{letter-spacing:0.02em;}.cls-21{letter-spacing:0em;}.cls-22{letter-spacing:0.01em;}.cls-23{letter-spacing:0.01em;}.cls-24{letter-spacing:0.02em;}.cls-25{letter-spacing:0.01em;}.cls-26{letter-spacing:-0.01em;}.cls-27{letter-spacing:-0.06em;}</style></defs><g id="Layer_2" data-name="Layer 2"><g id="Layer_1-2" data-name="Layer 1"><path class="cls-1" d="M715.58,45.27s34,50.75,49.35,52.47l-2.19,8.31-14.19,4.46-28.89-5.87s-8.92-20.38-8.82-23.11S715.58,45.27,715.58,45.27Z"/><path class="cls-1" d="M770.65,100.55a30.38,30.38,0,0,0,5.29-6.15c.92-1.49,4.19-3.32,5.3-4.77,3.49-4.56,3.82-7.87,5-9.69.83-1.31,3.75-6.63,8.19-9.19,8.29-4.8,20.18-7.69,21.68-11.12,3.73,6.91,1.54,49.46,1.54,49.46l-14.44,26.85L775,131.09l-12.72-5.17Z"/><path class="cls-2" d="M855.78,102.49s18.54-3.7,33.62-17c12.19-10.74,21-29.71,25-42.75l.95,59.74L894.47,108l-13.58,7.3-23.42-9Z"/><path class="cls-1" d="M714.67,45.07S748.79,95.3,764.18,97l-2.2,8.22-14.24,4.42-29-5.82S709.82,83.67,709.92,81,714.67,45.07,714.67,45.07Z"/><path class="cls-1" d="M769.92,99.79a30.14,30.14,0,0,0,5.3-6.1c.92-1.47,4.2-3.27,5.31-4.71,3.51-4.51,3.84-7.79,5-9.59.83-1.29,3.76-6.56,8.21-9.1,8.32-4.75,20.25-7.61,21.75-11,3.74,6.84,1.55,48.94,1.55,48.94l-14.49,26.58L774.23,130l-12.75-5.12Z"/><path class="cls-3" d="M809.6,115.41c7.73-10.82,5.88-56.12,5.88-56.12l26,30.86c9.08,13.33,24.27,30.48,29.6,30.64s3.76,10.89,3.76,10.89S850.54,120,832,121.25c-9.89.67-19.83,14.34-19.94,14.76-.3,1.24-65.48-8.11-65.48-8.11l-20.83-17.62L714.78,78.76l10.93-6s11.57,11.07,14.57,7.67,2.38,5.79,4.57,9.69,14.88,11.94,17.54,7.61c0,0,19.67-7.64,23.43-19,2.9,7.57,10.57,33.53,14,37.32"/><path class="cls-3" d="M705.28,70.84a4.21,4.21,0,0,0,1.43-1.56c4.35-7.08,6.27-16.2,8-24.21-.22,1.08,1,3.44,1.27,4.55l.93,3.46c.41,1.55.82,3.1,1.35,4.62A42.38,42.38,0,0,0,720,62c.48,1,1,2,1.49,3.08.86,1.74,1.65,4.53,2.36,6.31,4.9,12.39,6.4,24.68,12.92,36.52a18.09,18.09,0,0,0,3.5,4.74c9.68,8.86-39.75,13.7-39.75,13.7L672.7,122l-.14-9.1-1.26-11.09,0-7"/><path class="cls-3" d="M671.32,94.82s29.66-10.78,34-24"/><path class="cls-4" d="M781,116.44c12.42-7.83,12.56-43.62,12.56-43.65,0-.73-.27-1.94.18-2.5-.84,1,3.79,5.85,4.43,6.82a68,68,0,0,1,4.56,8.39c2.64,5.61,5.21,11.1,8.34,16.48,2.94,5,6,10.12,10.75,13.79A11.77,11.77,0,0,0,826,118"/><path class="cls-4" d="M829.67,122.54c-12.42-7.83-12.56-43.62-12.56-43.65a10.37,10.37,0,0,0-1.47-3.56c.85,1-1.33,7.07-2,8a60.26,60.26,0,0,0-4.59,7.83c-2.65,5.62-6.34,11.51-9.48,16.88-2.93,5-6,10.12-10.75,13.79a11.31,11.31,0,0,1-4.18,2.21"/><path class="cls-4" d="M788.44,127.59c-4.33,6.64-14,5.77-30.23,4.09C758,111.26,737.85,110,732.74,108c-2.72-5.15-3.45-7.62-11.07-.92a20.25,20.25,0,0,1-4.16,3.28,15.63,15.63,0,0,1-8.57,1.24,44.54,44.54,0,0,1-7.47-1.67,12.52,12.52,0,0,1-4.24-1.86c-1.79-1.4-2.41-3.43-3.38-5.36A66.18,66.18,0,0,0,690,96.3a63.51,63.51,0,0,0-9.61-11.71,10.88,10.88,0,0,1-1.72-1.87,7.67,7.67,0,0,1-1-4.32,90.26,90.26,0,0,1,1-12.71l-1,1.76-2.39,7.7-3.22,13.23-.9,11.4s1.36,17,1.68,19.36-1.9,9.53-1.9,9.53l-3,6.09L664.68,144l-2,6.21s22.66,8.37,26.91,8.13c1.85-3.66.72-4.07,1.15-5.19a30.38,30.38,0,0,1,2.15-5.45c.69-5.48,4.71-2.82,4.71-2.82l9.22,3.21,3.83,1.92L752,139.89l3.81-1.3,1.33-1.52.73,1.63,5.83.68,51.47,8.6,7-11.36,5.1-4.94,2.79-3.8,1.77-4.28.22-2.47,3.37,0,4,2.17,4,6.69.65,5.38-.4,15.7,36.94,10.21,2.35-6.64S833,108,829.11,94.37c-.44-1.52-8.31,12-9.87,15.6-2.82.31-7.21-8.5-7.11-4.11s-4.64,7-6.67,10.29Z"/><path class="cls-5" d="M901.9,88.38c.06-.15.11-.31.16-.47.87-2.58,1.47-5.24,2.11-7.88q.58-2.43,1.15-4.87c.77-3.26,1.55-6.52,2.4-9.77q3-11.4,6.63-22.64c6.2,15.87,13.32,31.71,19.52,47.58a42.78,42.78,0,0,1,3.06,15.79c0,5.44-2.52,11.23-7.48,13.63-4,1.93-8.84,1.33-12.84-.55s-7.34-4.89-10.57-7.88c-1.78-1.65-3.9-3.43-6.32-3.14a9.83,9.83,0,0,1-2.39.33c-2.44-.32-3.64-4.34-6-3.66l-1.2,1.57a7.86,7.86,0,0,1,4.5,6,15.54,15.54,0,0,1-.33,4.7l-.91,5.26a4.38,4.38,0,0,1-.64,1.88,4.5,4.5,0,0,1-1.89,1.23,88.11,88.11,0,0,0-15.3,8.62,15.21,15.21,0,0,1-5,2.72,13.86,13.86,0,0,1-3.64.23l-13-.3-8.62-15.46-13.42,0c3-4.2,8-6.34,12.69-8.61s9.51-5.25,11.2-10.1c4,2.09,7.77,4.65,12,6.39s8.95,2.63,13.25,1.2,7.82-5.67,7.27-10.11a6.5,6.5,0,0,0,2.06,2.38,2.26,2.26,0,0,0,2.9-.36c.31-.44.39-1,.68-1.45.54-.84,1.65-1.06,2.56-1.48a5.53,5.53,0,0,0,3-3.63C900.09,93,901.08,90.74,901.9,88.38Z"/><path class="cls-6" d="M777.84,43.73s0-21.79,21.2-30.88"/><path class="cls-6" d="M878.31,48.86s-1.64-10.59,5.33-13.29"/><path class="cls-7" d="M885.34,54.78a.8.8,0,0,1-.15.21.54.54,0,0,1-.51.17c-.24-.06-.36-.32-.45-.55a11.11,11.11,0,0,1,1.17-9.75,2.55,2.55,0,0,1,1.07-1,1.88,1.88,0,0,1,1.58.21c1.19.56,2.41,1.08,3.59,1.65a13.13,13.13,0,0,1,3.18,1.86,1.13,1.13,0,0,1,.32.4c.3.64-.47,1-1,.94-.76-.06-1.43-.54-2.19-.63-1.5-.18-3.17,1-4.12,2a14.38,14.38,0,0,0-2.36,4.25A2.39,2.39,0,0,1,885.34,54.78Z"/><path class="cls-7" d="M907.09,77.52a1.36,1.36,0,0,1-.78-2.48c2.25-1.54,4.77-3.24,4.94-3.24s8.35,6.06,11.56,8.47a1.35,1.35,0,0,1,.11,2.06L915.6,89.2a1.39,1.39,0,0,1-2.12-.26l-4.21-6.58a1.37,1.37,0,0,1,1.15-2.09l2.17,0a1.37,1.37,0,0,0,1.36-1.4h0a1.37,1.37,0,0,0-1.38-1.32Z"/><path d="M943.85,76.39c-2.88-1.39-7.73-1.34-12.06,1.44s2.35,12.93,2.35,12.93,8.48-8,9.71-10.92C943.86,77,943.85,76.39,943.85,76.39Z"/><path class="cls-8" d="M934.77,48.6,938.32,51a1.57,1.57,0,0,0,2.29-.59c.6-1.24,1.42-3,.74-4.38A3.3,3.3,0,0,0,939,44.64a4.15,4.15,0,0,0-2.49.12,5.23,5.23,0,0,0-2,1.55A1.55,1.55,0,0,0,934.77,48.6Z"/><path class="cls-9" d="M847.23,176s16.88,6,29-3.1"/><path class="cls-10" d="M922.71,112.93s-6,1.82-8.64,4.68"/><path class="cls-11" d="M690.71,166.08c-.12,4.94-.84,8.62-.28,11.78,1.79,10.12,6.36,10.9,15.52,17.85,1.33,4.38-7.44,4.36-9.88,4.53-8,.58-19,.6-25.22-2.73-2.24-1.21-2.24-5.42-4.23-10.22-2.42-5.87-5.86-14-6.64-21.63-1-9.83,2.06-19.82,4.23-21.91,0,0,11,2.28,16.31,6.3s7.07-8.86,14.07-6.49l-4.24,12Z"/><path class="cls-11" d="M894.09,120.75l-11,33.49-3.45,3.44-5.09,1.55-11,1.35L847.78,160l-4.72-1,.88-11c.16-2,.4-4.08.6-6.12a3.7,3.7,0,0,0,3-.46c2-1.18,3.54-3.44,5.14-5.1l3.05-3.12a16.17,16.17,0,0,0,2.71-2.91c.7-1.22,1.76-4.27,3.61-2.56.85.8,2,3.08,3.36,2.91,2-.25,4.28-.2,6.14-1.1s4.78-1.83,6.23-3.06,1.22-3.39,2.94-4.51c2.15-1.4-.88,7.57,1.6,7,1.75-.41,9-10.66,10.8-10.43a5.75,5.75,0,0,1,.83.14Z"/><path class="cls-12" d="M843.06,159s6.48-2.48,20.42-1,20.18-6.39,20.18-6.39l-7.25,20.68-.67,1.74-2.82,1.34-5.09,1.37-12.18,1.39s-6.19-.39-8.62-2.36-3.58-7.77-3.58-7.77l-.5-6.33.11-2.66"/><path class="cls-13" d="M876.21,172.88v.91s-2.89,7.3-3.5,11.16,1.64,5.47,1.64,5.47l4.91,3.57,3.3,2.09,3.73,3.08,1.54,1.4.21,1.67-1.09,1-7.53.21L864.81,203s-6.89-.4-10.67-.85-4.27-2-4.27-2l.14-4.46.68-6.07.16-3.36-.3-3.53L849.2,179l-2-3.06S872.69,176.84,876.21,172.88Z"/><path d="M937.64,107.41c.35-3.75-12.81-3.19-15.08.32s1.61,7.69,4,9.39,1.56,2.7,1.56,2.7l.06.22S937,114.55,937.64,107.41Z"/><path class="cls-14" d="M797.15,104.42a41.22,41.22,0,0,0,8.31,15.06c4.95,5.49,6,18.41,11.06,23.79V145l-61-23.26c1.52-1,2.71-2.81,4.23-3.79l6.94-4.48a23.1,23.1,0,0,0,3.83-2.49c1.51-1.56.89-4.47,2-6.22.14-.22,0,0,.19-.27a4.7,4.7,0,0,1,1.37.66,8.3,8.3,0,0,0,1.82.55c1.61.35,3.21.66,4.78,1.16a3.19,3.19,0,0,0,3.29-1,15.32,15.32,0,0,0,2.65-4.58c.8-1.88,1.47-3.83,2.42-5.64a.45.45,0,0,1,.1-.14s1.1-3.24,1.57-4.11c.32.78,1.76,4.5,2.55,6.28,2-3.25,1.68-3.07,2-4C795.18,93.57,796.62,102.8,797.15,104.42Z"/><path class="cls-15" d="M784.46,123.78A63.68,63.68,0,0,1,792,128.6l8.37,3.12,18.17,10.76-6.44,14.05-42.57-6.24-1.25-10.55L756,137.6a39.52,39.52,0,0,1-6.37,3.63c-.21.09-4,7.29-4,7.29l-4.09,14.71-2.95,5.3-3.24-.93-6.16-4.37-5.85-3.32-6.65,1.4-6.34-10.4L703,146l-10.56.09c2-2-2,2,0,0,4.56-4.73,7.33-11.15,11.84-15.91,5.08-5.38,8.47-12.17,13.43-17.66,3.91-4.32,8.31-8.69,11.38-13.67l.52-.88c1.55-2.7,2.78-5.57,4.43-8.22a3.19,3.19,0,0,1,.8-1c1.06-.74,1.93.41,2.44,1.21,2.72,4.22,4.08,12.56,8.36,11.23,1.56-.49,3.17-.81,4.77-1.16a8.23,8.23,0,0,0,1.83-.55,4.46,4.46,0,0,1,1.37-.66c.21.24,0,.05.19.27,1.08,1.75.46,4.67,2,6.22a23.61,23.61,0,0,0,3.84,2.49c2.3,1.5,4.62,3,6.94,4.48,1.52,1,2.71,2.77,4.23,3.79C775.14,119,779.86,121.22,784.46,123.78Z"/><path d="M743.66,159.91c-.14,15.21-.41,17,.69,19.17,1,1.95,2.88,4.39,11.67,12.68l-.4,3c-6.44,1.27-8.71,0-16.14-.37-3.4-.18-7.18.92-11.08.29-9-2.37-5.93-1.12-8.85-8.95-.73-2.45,1.23-6.37,1-8.1-.7-5.86-.26-9.09-3.29-15.81,0,0-5.79-13.63-15-15.9-7.17-1.41-8.3-1.59-8.3-1.59s13.49-7.18,18.43-9.94c4-2.21,11.36-2.09,16.84-2.67,0,0,6.34,11.4,8.93,2.82s5.58,14.09,17.82,3c0,0-13.65,4.33-12.36,22.37"/><path class="cls-11" d="M814.45,152.89,813.14,156l-2.2,11.46-2.32,1.79-3.57,2.63-16.25,2-14.25-7.77L772.18,162l-1.33-5.19-1.31-6.56s18.06-3.75,18.9-4.31,6,7.83,13.26,5.46S816.52,146,816.52,146Z"/><path class="cls-16" d="M786.9,171.78c10.49,1.39,16.21-2.66,24.33-4.86l-.76,8.62-20.83.44Z"/><path d="M772.41,158.14c2.94,1.85,5.83,3.78,8.71,5.74,2.16,1.47,4,3.26,6.33,4.57,4.8,2.77,9.81,3.2,15.2,3.76,2.44.25,6.18,1.32,8.08-.82l.19-.09s-.43,9.39-.22,14.23c-.62,4.74.94,7.11.94,7.11l3.84,2.56,7.06,5.1,3.11,3.16v2.21l-4.1.88s-6.15,0-7.61.63-14.15-.22-19.54-1.24-6-3-6-3-1.26-5.17-2-8.2-7.25-12.81-7.25-12.81l-3-8.07-1.05-5-1.35-5.24-1.29-5.5"/><path class="cls-17" d="M663,180c3.41,6.64,4,7,5.41,14.32a4.9,4.9,0,0,0,1,2.5,4.48,4.48,0,0,0,1.82,1c10.31,3.64,22.52,3,33.23,1.7,4.55-.55.16-4.67-1.44-6a55,55,0,0,0-5-3.74c-1.8-1.22-3.38-1.93-4.29-4-.11-.26-.21-.52-.32-.79-3.17-8.34-2.13-9.73-3.08-18.49a41.43,41.43,0,0,1-.29-7.71A39.46,39.46,0,0,1,693.42,145a.72.72,0,0,1,.23-.31.69.69,0,0,1,.38,0,37.24,37.24,0,0,1,8.27,1.24,20.32,20.32,0,0,1,6.21,3.1,19.56,19.56,0,0,1,4.32,4.53,26.73,26.73,0,0,1,2.89,5.5,48.79,48.79,0,0,1,1.88,6c.51,2,.92,4,1.33,6.07s.75,3.78,1.21,5.66c.18.73.38,1.45.59,2.17,0,0-7.25,17.39,14,15.53,5.84-.51,11.69.61,17.54.7,1.24,0,3.1.06,4-.91,2.81-2.87-5.73-9.2-7.45-10.79-3.22-3-5.21-6.09-5.67-10.47-.5-4.76,0-9.54.48-14.29s1.26-10.24,3.9-14.49c.56-.91,7.88-8.53,9.93-6.23.45.5,10.81,1.1,10.79,1.76-.33,9.76,3.26,18.1,5,27.48.85,4.62,3.06,8.36,5.27,12.47.47.87.93,1.73,1.38,2.6,3.42,6.64,5.55,10.69,7,18a4.9,4.9,0,0,0,1,2.5,4.54,4.54,0,0,0,1.82,1c10.31,3.64,22.52,3,33.23,1.7,7.58-.92-7.51-10.62-9.14-11.51a10.89,10.89,0,0,1-2.57-1.69,7.38,7.38,0,0,1-1.76-5.27c-.05-17.65.47-35,12-49.65,3.51-4.47,7.26-8.56,10.21-13.46.77-1.27,1.68-2.71,3.16-3,4-.73,6.55,4.54,7.66,7.47a34.25,34.25,0,0,1,1.87,12.7c-.11,5.92-1,11.78-1.31,17.7-.26,4.62.06,9.41,2.09,13.59,1.11,2.28,2.71,4.31,4,6.52,3.48,6.15.94,13.16.71,19.78a2.88,2.88,0,0,0,.66,2.37,2.93,2.93,0,0,0,1.56.51c5.57.69,11.14,1.39,16.74,1.66,5.87.3,11.75.13,17.62,0a2.18,2.18,0,0,0,1.22-.27c1-.69.25-2.26-.62-3.14a34.37,34.37,0,0,0-7.23-5.56c-1.92-1.11-4-2.09-5.37-3.83a9.06,9.06,0,0,1-1.58-6.49,27.18,27.18,0,0,1,1.81-6.57q5.79-15.83,11.35-31.72c3.52-10.07,7.42-19.86,8.67-30.47.27-2.24.29-4.87-1.44-6.35-.61-.52-1.37-.83-2-1.34-2.09-1.7.25-3.72,2.21-2.41,1.52,1,1.91,3.38,3.91,3.76,1.51.29,2.93-1,4.47-.93,1.76.08,2.56,1.62,3.51,2.82a22.77,22.77,0,0,0,3.84,3.76,38,38,0,0,0,9.17,5.06c1.06.43,4.27,2.23,5.42,2,8-1.48,16.25-10.9,13.36-19.19a62.33,62.33,0,0,1-2.89-10.84,1.26,1.26,0,0,1,0-.58,1.33,1.33,0,0,1,.44-.56c3.73-3.27,8.3-6.94,9.15-12.11a34.25,34.25,0,0,0,0-7.3,92.47,92.47,0,0,1,0-10.66,23.9,23.9,0,0,1,2.21-8.15,17.72,17.72,0,0,0,.72-8.85c-.73-5-7.83-4.63-10.23-4.74-3.91,0-7.72-2.24-11.19-3.08a29.18,29.18,0,0,1-5.38-2c-.61-.29-1.24-.54-1.87-.78-6.23-2.36-12.61-4.29-18.86-6.57-3.48-1.28-6.92-2.66-10.26-4.28-2.73-1.33-5.25-3-8-4.38s-5.42-2.76-8-4.39C864.08,7.38,854.1,1.93,843.1,2c-8.08,0-15.77,3.11-23.45,5.6a171.72,171.72,0,0,1-20.47,5.28c-6.31,1.22-12.58-.28-18.95-.74a226.53,226.53,0,0,0-27.2-.61c-17.9.84-36,5.15-50,16.74-9.66,8-16.33,18.79-21.28,30.11-5,11.49-9.48,23.89-10.41,36.44-.05.72-.09,1.45-.12,2.17-.33,8.59,2.37,16.45,1.5,25-.78,7.76-4.49,15.25-8,22-3.12,6-5,12.8-4.38,19.59.26,3.05.23,6.11.58,9.15.3,2.6,1.47,4.89,2.15,7.38"/><text class="cls-18" transform="translate(0 153.36)">T<tspan class="cls-19" x="104.54" y="0">i</tspan><tspan x="122.02" y="0">jd</tspan><tspan class="cls-20" x="274.95" y="0">l</tspan><tspan class="cls-21" x="307.22" y="0">o</tspan><tspan class="cls-22" x="401.21" y="0">z</tspan><tspan x="485.7" y="0">e</tspan></text><text class="cls-18" transform="translate(1007.02 153.36)">M<tspan class="cls-23" x="113.12" y="0">o</tspan><tspan class="cls-24" x="208.26" y="0">m</tspan><tspan class="cls-25" x="346.93" y="0">e</tspan><tspan class="cls-26" x="440.09" y="0">n</tspan><tspan class="cls-27" x="526.44" y="0">t</tspan><tspan class="cls-25" x="598.51" y="0">e</tspan><tspan x="691.68" y="0">n</tspan></text></g></g></svg>