<svg xmlns="http://www.w3.org/2000/svg" viewBox="0 0 1786.03 212.69"><defs><style>.cls-1,.cls-9{fill:#f9f9f9;}.cls-2,.cls-4{fill:#ccc;}.cls-2,.cls-3{opacity:0.67;}.cls-3,.cls-5,.cls-6{fill:#b3b3b3;}.cls-5{stroke:#b3b3b3;}.cls-10,.cls-12,.cls-13,.cls-14,.cls-15,.cls-16,.cls-17,.cls-18,.cls-5,.cls-7,.cls-8,.cls-9{stroke-miterlimit:10;}.cls-12,.cls-13,.cls-14,.cls-15,.cls-5{stroke-width:0.25px;}.cls-10,.cls-11,.cls-17,.cls-7{fill:none;}.cls-17,.cls-7,.cls-9{stroke:#f9f9f9;}.cls-7{stroke-linecap:round;stroke-width:2px;}.cls-16,.cls-8{fill:#1a1a1a;}.cls-13,.cls-16,.cls-8{stroke:#1a1a1a;}.cls-8{stroke-width:0.75px;}.cls-10{stroke:#000;}.cls-12,.cls-18{fill:#333;stroke:#333;}.cls-14{fill:#666;stroke:#666;}.cls-15{fill:#4d4d4d;stroke:#4d4d4d;}.cls-17{stroke-width:4px;}.cls-18{stroke-width:0.5px;}</style></defs><g id="Layer_2" data-name="Layer 2"><g id="Layer_1-2" data-name="Layer 1"><path class="cls-1" d="M0,87.2H90.12v22.55H56.38v45.69H33.83V109.75H0Z"/><path class="cls-1" d="M103.43,83.79h22.65v11H103.43Zm0,15.36h22.65v56.29H103.43Z"/><path class="cls-1" d="M144.16,99.25h22.56v48.61a81.34,81.34,0,0,1-.58,10.5,33,33,0,0,1-2.19,8.16,15.22,15.22,0,0,1-4.52,6.22,27.33,27.33,0,0,1-7.63,4.08,46.31,46.31,0,0,1-11.38,2.43,143.73,143.73,0,0,1-15.89.59c0-.46,0-2.64,0-6.56s0-7.73,0-11.42q4.66,0,7.53-.2a24.4,24.4,0,0,0,5.3-.92,10.6,10.6,0,0,0,3.6-1.7,7.53,7.53,0,0,0,2-3,15.48,15.48,0,0,0,1.07-4.42q.24-2.43.24-6.32Zm0-15.36h22.56V94.78H144.16Z"/><path class="cls-1" d="M242.35,87.39H264.9v68.05H242.35v-6q-9.24,6.51-26.15,6.52c-2.72,0-5.19-.09-7.39-.25a66.13,66.13,0,0,1-7.19-1,34.51,34.51,0,0,1-6.91-2,27.49,27.49,0,0,1-5.93-3.5A20.48,20.48,0,0,1,184,144a26,26,0,0,1-3.06-7.38,38.62,38.62,0,0,1-1.17-9.87,24.87,24.87,0,0,1,3-12.2,23.66,23.66,0,0,1,8-8.65,40.24,40.24,0,0,1,11.42-5,52.53,52.53,0,0,1,13.56-1.7,58.81,58.81,0,0,1,26.64,5.93Zm0,44.43v-7.68q-3.12-8.37-23-8.37h-2.38c-.49,0-1.23.06-2.24.15a14.25,14.25,0,0,0-2.53.44c-.68.19-1.49.47-2.43.83a6.86,6.86,0,0,0-2.33,1.4,16.78,16.78,0,0,0-1.8,2,8.05,8.05,0,0,0-1.31,2.91,16.13,16.13,0,0,0-.44,3.89q0,11.56,16.82,11.57,9.44,0,14.14-1.41A13.31,13.31,0,0,0,242.35,131.82Z"/><path class="cls-1" d="M278.22,149.41v-62h22.65v68.05H278.22Z"/><path class="cls-1" d="M354.14,98.76a116.62,116.62,0,0,1,12.93.64,56.18,56.18,0,0,1,11.47,2.52,29.59,29.59,0,0,1,9.53,5,22.2,22.2,0,0,1,6.12,8.31,29.51,29.51,0,0,1,2.34,12.2,29.74,29.74,0,0,1-2.87,13.61,21.18,21.18,0,0,1-8.51,8.89,41.15,41.15,0,0,1-13,4.67,94,94,0,0,1-17.4,1.41,91.45,91.45,0,0,1-17.6-1.46,39.76,39.76,0,0,1-12.83-4.71,20.34,20.34,0,0,1-8.12-8.85,31.22,31.22,0,0,1-2.67-13.56,30.57,30.57,0,0,1,2.18-12,22.21,22.21,0,0,1,5.79-8.26,28.51,28.51,0,0,1,8.94-5.06,51.86,51.86,0,0,1,11-2.67A101.46,101.46,0,0,1,354.14,98.76Zm.78,41.32q8.55,0,13.08-2.87t4.52-9.77a11.57,11.57,0,0,0-1.75-6.46,10.5,10.5,0,0,0-4.62-3.94,26.68,26.68,0,0,0-5.64-1.8,31.58,31.58,0,0,0-5.88-.54,29.27,29.27,0,0,0-4.47.35,22.44,22.44,0,0,0-4.57,1.21,14.53,14.53,0,0,0-4,2.24,10.75,10.75,0,0,0-3.93,8.45q0,6.72,4.22,9.92T354.92,140.08Z"/><path class="cls-1" d="M406.35,99.05h73.39v18h-.68l-38,20.32h38.69v18.08H406.35V137.36h.87L447.47,117H406.35Z"/><path class="cls-1" d="M531.65,97.79a75.94,75.94,0,0,1,17.4,1.75,35.3,35.3,0,0,1,12.83,5.73,22.94,22.94,0,0,1,8,10.85q2.52,6.85,1.75,16.47H513.86c.33,1.75,1.91,3.18,4.77,4.28s7.12,1.65,12.83,1.65a114.66,114.66,0,0,0,14.92-1,104.62,104.62,0,0,0,11.23-1.94l3.69-1L571,150.38a7.71,7.71,0,0,1-1.07.54,39.5,39.5,0,0,1-3.93,1.21,70.13,70.13,0,0,1-7.15,1.56q-4,.67-11.08,1.21t-15.56.54A95.46,95.46,0,0,1,515,154.08a42.76,42.76,0,0,1-12-3.79,22.15,22.15,0,0,1-7.43-6.13,21.79,21.79,0,0,1-3.89-7.87,39.15,39.15,0,0,1-1.07-9.72q0-13.62,10.35-21.2T531.65,97.79Zm.2,17.4a46.06,46.06,0,0,0-9.14.78,15.48,15.48,0,0,0-5.54,2,9.63,9.63,0,0,0-2.53,2.38,4.19,4.19,0,0,0-.78,2.34h34.8q0-3.21-3.84-5.35T531.85,115.19Z"/><path class="cls-1" d="M1082.51,155.44h-18.66L1047,125.5v29.94h-22.65V87.2h27L1073.47,125l22.07-37.81h27.12v68.24H1100V125.3Z"/><path class="cls-1" d="M1176.61,98.76a116.75,116.75,0,0,1,12.93.64,56.32,56.32,0,0,1,11.47,2.52,29.69,29.69,0,0,1,9.53,5,22.41,22.41,0,0,1,6.12,8.31,29.67,29.67,0,0,1,2.33,12.2,29.74,29.74,0,0,1-2.86,13.61,21.24,21.24,0,0,1-8.51,8.89,41.12,41.12,0,0,1-13,4.67,93.85,93.85,0,0,1-17.4,1.41,91.41,91.41,0,0,1-17.59-1.46,39.82,39.82,0,0,1-12.84-4.71,20.32,20.32,0,0,1-8.11-8.85,31.22,31.22,0,0,1-2.68-13.56,30.39,30.39,0,0,1,2.19-12,22.31,22.31,0,0,1,5.78-8.26,28.45,28.45,0,0,1,9-5.06,51.78,51.78,0,0,1,11-2.67A101.51,101.51,0,0,1,1176.61,98.76Zm.78,41.32q8.55,0,13.07-2.87t4.52-9.77a11.49,11.49,0,0,0-1.75-6.46,10.4,10.4,0,0,0-4.62-3.94,26.78,26.78,0,0,0-5.63-1.8,31.58,31.58,0,0,0-5.88-.54,29.4,29.4,0,0,0-4.48.35,22.62,22.62,0,0,0-4.57,1.21,14.46,14.46,0,0,0-4,2.24,10.79,10.79,0,0,0-3.94,8.45q0,6.72,4.23,9.92T1177.39,140.08Z"/><path class="cls-1" d="M1350.13,110.62a38.41,38.41,0,0,1,2.19,9.77,119.36,119.36,0,0,1,.83,11.91q.09,5.74.09,18.76v4.38h-22.65V136.68c0-.78,0-1.86.1-3.26s.12-2.56.15-3.5a32.33,32.33,0,0,0-.1-3.4,16.18,16.18,0,0,0-.54-3.31,14.84,14.84,0,0,0-1.21-2.82,6.58,6.58,0,0,0-2.14-2.38,12.07,12.07,0,0,0-3.3-1.46,16.92,16.92,0,0,0-4.72-.58,21.94,21.94,0,0,0-9.62,2.29,20,20,0,0,0-7.1,5.19q.5,6.92.49,27.61v4.38h-22.36V136.68c0-.72,0-1.8.1-3.26s.09-2.64.09-3.55,0-2-.14-3.4a15.49,15.49,0,0,0-.54-3.31,14,14,0,0,0-1.26-2.77,7,7,0,0,0-2.19-2.38,12,12,0,0,0-3.35-1.46,17,17,0,0,0-4.67-.58q-10.2,0-15.75,7.87v31.6h-22.65V99.15h22.65v6.9a47.29,47.29,0,0,1,10.5-5.49A38.46,38.46,0,0,1,1276,98.67a40.92,40.92,0,0,1,13.66,2,16.19,16.19,0,0,1,8.8,7.73q11.37-9.72,28.19-9.72c2.2,0,4.15.08,5.83.24a36.35,36.35,0,0,1,5.4,1,19.12,19.12,0,0,1,5,2,17.48,17.48,0,0,1,4.09,3.46A18.16,18.16,0,0,1,1350.13,110.62Z"/><path class="cls-1" d="M1406.13,97.79a76.06,76.06,0,0,1,17.4,1.75,35.38,35.38,0,0,1,12.83,5.73,22.92,22.92,0,0,1,8,10.85q2.54,6.85,1.75,16.47h-57.74q.48,2.63,4.76,4.28t12.83,1.65a114.55,114.55,0,0,0,14.92-1,104.16,104.16,0,0,0,11.23-1.94l3.7-1,9.72,15.75a8.36,8.36,0,0,1-1.07.54,39.13,39.13,0,0,1-3.94,1.21,70.51,70.51,0,0,1-7.14,1.56q-4,.67-11.09,1.21t-15.55.54a95.46,95.46,0,0,1-17.25-1.36,42.66,42.66,0,0,1-12-3.79,22.19,22.19,0,0,1-7.44-6.13,21.79,21.79,0,0,1-3.89-7.87,39.63,39.63,0,0,1-1.07-9.72q0-13.62,10.36-21.2T1406.13,97.79Zm.19,17.4a46.13,46.13,0,0,0-9.14.78,15.55,15.55,0,0,0-5.54,2,9.63,9.63,0,0,0-2.53,2.38,4.18,4.18,0,0,0-.77,2.34h34.8q0-3.21-3.84-5.35T1406.32,115.19Z"/><path class="cls-1" d="M1531.53,110.62a39.82,39.82,0,0,1,2.87,13.47q.52,8.22.53,26.88v4.47h-22.65V133.13c0-.68,0-1.67-.14-3a24.44,24.44,0,0,0-.39-3.06q-.26-1.11-.78-2.82a10,10,0,0,0-1.26-2.72,21.61,21.61,0,0,0-1.85-2.19,8.6,8.6,0,0,0-2.58-1.85,16.6,16.6,0,0,0-3.5-1.11,21.44,21.44,0,0,0-4.47-.44,23.16,23.16,0,0,0-10,1.8,24.34,24.34,0,0,0-6.95,5.1v32.57h-22.85V99.15h22.85v7.78c2.07-1.49,3.68-2.58,4.81-3.26a51.41,51.41,0,0,1,4.76-2.43,25.79,25.79,0,0,1,6.66-2,52,52,0,0,1,8.26-.58,76.44,76.44,0,0,1,8.07.38,40.59,40.59,0,0,1,7.34,1.56,17.94,17.94,0,0,1,6.71,3.69A17.75,17.75,0,0,1,1531.53,110.62Z"/><path class="cls-1" d="M1585.19,137a43.35,43.35,0,0,0,5.25-.34c1.88-.23,3.57-.5,5.06-.83s2.86-.66,4.13-1,2.26-.65,3-.87a6.67,6.67,0,0,0,1-.34l8.07,17.49a36.24,36.24,0,0,1-4.28,1.31q-2.82.74-12.1,2a138.54,138.54,0,0,1-19.3,1.31,75.13,75.13,0,0,1-7.82-.34,17.24,17.24,0,0,1-5.59-1.56,10.38,10.38,0,0,1-3.89-3,16,16,0,0,1-2.34-5.2,38.24,38.24,0,0,1-1.26-7.68q-.29-4.27-.29-10.89V115.77h-11.28V98.86h11.28V87.1h22.55V98.86h27.52v16.91h-27.52v11.82c0,.23,0,.69.1,1.41a12.88,12.88,0,0,0,.34,2,12.58,12.58,0,0,0,.78,2.09,6.62,6.62,0,0,0,1.36,2,6.2,6.2,0,0,0,2.19,1.36A8.06,8.06,0,0,0,1585.19,137Z"/><path class="cls-1" d="M1657.22,97.79a76.09,76.09,0,0,1,17.41,1.75,35.38,35.38,0,0,1,12.83,5.73,22.92,22.92,0,0,1,8,10.85q2.53,6.85,1.75,16.47h-57.74q.48,2.63,4.76,4.28t12.83,1.65a114.55,114.55,0,0,0,14.92-1,104.62,104.62,0,0,0,11.23-1.94l3.7-1,9.72,15.75a8.36,8.36,0,0,1-1.07.54,39.13,39.13,0,0,1-3.94,1.21,70.51,70.51,0,0,1-7.14,1.56q-4,.67-11.09,1.21t-15.55.54a95.65,95.65,0,0,1-17.26-1.36,42.69,42.69,0,0,1-12-3.79,22.19,22.19,0,0,1-7.44-6.13,21.79,21.79,0,0,1-3.89-7.87,39.63,39.63,0,0,1-1.07-9.72q0-13.62,10.35-21.2T1657.22,97.79Zm.2,17.4a46.06,46.06,0,0,0-9.14.78,15.55,15.55,0,0,0-5.54,2,9.63,9.63,0,0,0-2.53,2.38,4.18,4.18,0,0,0-.77,2.34h34.8q0-3.21-3.84-5.35T1657.42,115.19Z"/><path class="cls-1" d="M1782.63,110.62a40.07,40.07,0,0,1,2.87,13.47q.52,8.22.53,26.88v4.47h-22.65V133.13q0-1-.15-3a21.16,21.16,0,0,0-.39-3.06c-.16-.74-.42-1.68-.77-2.82a9.73,9.73,0,0,0-1.27-2.72,20.18,20.18,0,0,0-1.84-2.19,8.73,8.73,0,0,0-2.58-1.85,16.6,16.6,0,0,0-3.5-1.11,21.44,21.44,0,0,0-4.47-.44,23.24,23.24,0,0,0-10,1.8,24.62,24.62,0,0,0-7,5.1v32.57h-22.84V99.15h22.84v7.78q3.12-2.24,4.81-3.26a53.15,53.15,0,0,1,4.77-2.43,25.67,25.67,0,0,1,6.66-2,51.88,51.88,0,0,1,8.26-.58,76.58,76.58,0,0,1,8.07.38,40.77,40.77,0,0,1,7.34,1.56,17.4,17.4,0,0,1,11.23,10Z"/><path class="cls-2" d="M720.1,46.14s34.7,51.79,50.35,53.55l-2.24,8.48-14.47,4.55-29.48-6s-9.1-20.79-9-23.58S720.1,46.14,720.1,46.14Z"/><path class="cls-2" d="M776.29,102.55a30.75,30.75,0,0,0,5.39-6.28c.94-1.52,4.27-3.38,5.41-4.86,3.56-4.65,3.9-8,5.07-9.88.85-1.34,3.83-6.77,8.36-9.39,8.46-4.89,20.59-7.84,22.12-11.34,3.8,7,1.57,50.46,1.57,50.46l-14.73,27.4-28.8-4.95-13-5.28Z"/><path class="cls-3" d="M863.14,104.53s18.92-3.77,34.31-17.34c12.43-11,21.38-30.31,25.46-43.61l1,61-21.25,5.59-13.85,7.45-23.9-9.23Z"/><path class="cls-2" d="M719.17,46s34.81,51.25,50.51,53l-2.24,8.39-14.52,4.5-29.57-5.93s-9.13-20.58-9-23.34S719.17,46,719.17,46Z"/><path class="cls-2" d="M775.54,101.77A30.63,30.63,0,0,0,781,95.56c.94-1.51,4.28-3.35,5.42-4.81,3.58-4.61,3.91-8,5.09-9.79.85-1.32,3.83-6.69,8.38-9.28,8.49-4.85,20.66-7.77,22.19-11.23,3.81,7,1.58,49.94,1.58,49.94l-14.78,27.12-28.89-4.9-13-5.23Z"/><path class="cls-4" d="M816,117.71c7.88-11,6-57.26,6-57.26l26.52,31.49c9.27,13.6,24.77,31.1,30.2,31.26s3.84,11.12,3.84,11.12-24.79-11.93-43.75-10.65c-10.09.69-20.23,14.63-20.34,15.06-.31,1.26-66.81-8.28-66.81-8.28l-21.25-18L719.28,80.32l11.16-6.09s11.8,11.29,14.86,7.82S747.72,88,750,91.94s15.18,12.18,17.9,7.77c0,0,20.07-7.81,23.91-19.39,3,7.72,10.78,34.21,14.3,38.07"/><path class="cls-4" d="M709.59,72.24A4.19,4.19,0,0,0,711,70.65c4.44-7.23,6.41-16.53,8.13-24.7-.23,1.09,1,3.51,1.29,4.64s.64,2.35.95,3.53c.43,1.58.84,3.16,1.38,4.71a44.19,44.19,0,0,0,1.83,4.39c.49,1,1,2.09,1.52,3.14.87,1.78,1.68,4.63,2.4,6.44,5,12.64,6.54,25.18,13.19,37.26a18.45,18.45,0,0,0,3.57,4.84c9.88,9-40.56,14-40.56,14l-28.39-4.42-.15-9.29-1.29-11.31,0-7.15"/><path class="cls-4" d="M674.94,96.71s30.26-11,34.65-24.49"/><path class="cls-5" d="M786.84,118.76c12.67-8,12.82-44.5,12.82-44.53,0-.75-.28-2,.18-2.55-.86,1.07,3.86,6,4.51,6.95A69.45,69.45,0,0,1,809,87.19c2.69,5.73,5.31,11.34,8.51,16.81,3,5.14,6.16,10.33,11,14.08a11.91,11.91,0,0,0,4.26,2.26"/><path class="cls-5" d="M836.51,125c-12.67-8-12.82-44.51-12.82-44.54a10.59,10.59,0,0,0-1.5-3.63c.87,1.07-1.36,7.22-2,8.2a61.56,61.56,0,0,0-4.68,8c-2.7,5.73-6.48,11.74-9.67,17.22-3,5.14-6.16,10.33-11,14.07a11.65,11.65,0,0,1-4.27,2.26"/><path class="cls-5" d="M794.44,130.14c-4.42,6.78-14.33,5.88-30.84,4.18-.22-20.84-20.78-22.16-26-24.15-2.77-5.26-3.51-7.78-11.29-1a20.25,20.25,0,0,1-4.25,3.35,15.86,15.86,0,0,1-8.74,1.26,44.37,44.37,0,0,1-7.62-1.7,12.66,12.66,0,0,1-4.33-1.9c-1.82-1.42-2.45-3.49-3.44-5.46a69.06,69.06,0,0,0-3.9-6.56,65.27,65.27,0,0,0-9.8-11.94,11.34,11.34,0,0,1-1.76-1.91,7.8,7.8,0,0,1-1-4.4,92.33,92.33,0,0,1,1-13l-1.06,1.79L679,76.63l-3.28,13.51-.92,11.62s1.38,17.34,1.71,19.76-1.94,9.72-1.94,9.72l-3,6.22-3.4,9.47-2,6.33s23.12,8.54,27.45,8.29c1.89-3.73.74-4.15,1.17-5.29A31.13,31.13,0,0,1,697,150.7c.72-5.6,4.81-2.88,4.81-2.88l9.41,3.27,3.91,2,42.13-10.37,3.89-1.33,1.36-1.55.75,1.67,5.95.69L821.69,151l7.17-11.6,5.19-5,2.86-3.88,1.79-4.37.23-2.52,3.45,0,4.11,2.22,4.06,6.82.67,5.49-.41,16,37.69,10.42,2.4-6.78s-51-47.58-55-61.53c-.44-1.55-8.47,12.3-10.07,15.92-2.88.32-7.35-8.67-7.25-4.19s-4.73,7.19-6.81,10.5Z"/><path class="cls-6" d="M910.21,90.14c0-.16.11-.32.16-.48.89-2.64,1.49-5.35,2.15-8,.4-1.65.78-3.31,1.17-5,.79-3.33,1.58-6.66,2.45-10q3.06-11.64,6.77-23.1c6.32,16.19,13.58,32.35,19.91,48.54a43.68,43.68,0,0,1,3.12,16.11c0,5.56-2.57,11.47-7.63,13.91-4.06,2-9,1.36-13.1-.56s-7.49-5-10.79-8c-1.81-1.69-4-3.5-6.44-3.2a9.75,9.75,0,0,1-2.44.33c-2.49-.32-3.71-4.42-6.13-3.73l-1.22,1.6a8,8,0,0,1,4.59,6.07,15.48,15.48,0,0,1-.33,4.79l-.93,5.38a4.45,4.45,0,0,1-.66,1.91,4.51,4.51,0,0,1-1.92,1.26,89.61,89.61,0,0,0-15.61,8.79,15.87,15.87,0,0,1-5.14,2.78,14.4,14.4,0,0,1-3.71.23l-13.23-.31-8.78-15.77-13.7,0c3-4.29,8.19-6.47,13-8.78s9.7-5.36,11.42-10.31c4.09,2.13,7.94,4.74,12.2,6.52s9.13,2.69,13.51,1.23,8-5.79,7.42-10.32a6.71,6.71,0,0,0,2.11,2.43,2.32,2.32,0,0,0,3-.37c.31-.45.39-1,.69-1.48.55-.86,1.68-1.08,2.61-1.51a5.63,5.63,0,0,0,3.07-3.7C908.36,94.85,909.37,92.54,910.21,90.14Z"/><path class="cls-7" d="M783.62,44.58s0-22.23,21.63-31.51"/><path class="cls-7" d="M886.14,49.81s-1.68-10.8,5.43-13.56"/><path class="cls-1" d="M893.31,55.85a.8.8,0,0,1-.15.21.57.57,0,0,1-.53.18c-.24-.06-.37-.32-.45-.56a11.34,11.34,0,0,1,1.18-10,2.61,2.61,0,0,1,1.1-1.06,2,2,0,0,1,1.61.21c1.22.58,2.45,1.11,3.67,1.69A13.55,13.55,0,0,1,903,48.46a1.33,1.33,0,0,1,.34.41c.3.66-.48,1-1,1-.78-.06-1.47-.55-2.24-.64-1.54-.18-3.23,1-4.21,2a14.84,14.84,0,0,0-2.4,4.34C893.4,55.66,893.36,55.76,893.31,55.85Z"/><path class="cls-8" d="M915.5,79.06a1.39,1.39,0,0,1-.8-2.53c2.3-1.58,4.86-3.31,5-3.31s8.52,6.18,11.79,8.64a1.36,1.36,0,0,1,.11,2.1l-7.46,7a1.41,1.41,0,0,1-2.16-.26L917.72,84a1.39,1.39,0,0,1,1.18-2.13l2.21,0a1.39,1.39,0,0,0,1.38-1.43h0a1.39,1.39,0,0,0-1.4-1.34Z"/><path class="cls-8" d="M953,77.9c-2.93-1.42-7.88-1.37-12.3,1.47s2.39,13.19,2.39,13.19,8.65-8.12,9.91-11.14C953,78.48,953,77.9,953,77.9Z"/><path class="cls-9" d="M943.73,49.54,947.36,52a1.59,1.59,0,0,0,2.33-.59c.62-1.27,1.45-3.1.76-4.48A3.36,3.36,0,0,0,948,45.5a4.28,4.28,0,0,0-2.53.12,5.31,5.31,0,0,0-2.07,1.59A1.57,1.57,0,0,0,943.73,49.54Z"/><path class="cls-10" d="M854.42,179.51s17.22,6.12,29.57-3.16"/><path class="cls-11" d="M931.44,115.18s-6.11,1.86-8.83,4.78"/><path class="cls-12" d="M694.72,169.41c-.11,5-.85,8.8-.28,12,1.83,10.33,6.49,11.12,15.83,18.21,1.36,4.47-7.59,4.45-10.08,4.63-8.18.58-19.42.61-25.73-2.79-2.28-1.24-2.29-5.53-4.31-10.43-2.48-6-6-14.26-6.78-22.07-1-10,2.1-20.22,4.32-22.35,0,0,11.21,2.32,16.64,6.42s7.21-9,14.35-6.62l-4.33,12.23Z"/><path class="cls-12" d="M902.23,123.16l-11.17,34.17-3.52,3.51-5.19,1.58-11.19,1.38L855,163.25l-4.81-1,.89-11.28c.17-2.08.41-4.16.61-6.24a3.79,3.79,0,0,0,3-.47c2-1.21,3.61-3.5,5.24-5.2q1.54-1.6,3.12-3.18a16.09,16.09,0,0,0,2.75-3c.73-1.24,1.8-4.35,3.69-2.6.87.81,2,3.14,3.43,3,2.05-.25,4.37-.2,6.26-1.12s4.88-1.87,6.36-3.12,1.25-3.46,3-4.6c2.19-1.44-.9,7.72,1.63,7.12,1.79-.43,9.14-10.88,11-10.65a7.94,7.94,0,0,1,.85.15Z"/><path class="cls-8" d="M850.17,162.23s6.61-2.53,20.83-1,20.59-6.53,20.59-6.53l-7.39,21.11-.69,1.77-2.88,1.37-5.19,1.39L863,181.73s-6.31-.39-8.79-2.4-3.65-7.93-3.65-7.93l-.52-6.46.12-2.71"/><path class="cls-13" d="M884,176.35v.93s-3,7.44-3.57,11.39,1.67,5.57,1.67,5.57l5,3.65,3.37,2.13,3.8,3.14,1.58,1.43.21,1.7-1.11,1-7.69.22-14.9-.39s-7-.41-10.89-.87-4.35-2.07-4.35-2.07l.13-4.55.7-6.2.17-3.43-.31-3.6-1.38-3.74-2-3.12S880.4,180.39,884,176.35Z"/><path class="cls-8" d="M946.67,109.55c.35-3.82-13.07-3.26-15.39.33s1.64,7.84,4.08,9.58,1.6,2.76,1.6,2.76l.06.22S946,116.84,946.67,109.55Z"/><path class="cls-14" d="M803.33,106.5a42,42,0,0,0,8.47,15.37c5.06,5.59,6.11,18.78,11.29,24.26v1.73L760.8,124.12c1.54-1,2.76-2.87,4.31-3.87q3.55-2.28,7.08-4.57a23.5,23.5,0,0,0,3.92-2.54c1.53-1.59.9-4.56,2-6.34.14-.23,0,0,.2-.28a4.84,4.84,0,0,1,1.39.67,8.07,8.07,0,0,0,1.87.56c1.63.37,3.27.68,4.87,1.18a3.2,3.2,0,0,0,3.35-1,15.27,15.27,0,0,0,2.71-4.67c.82-1.91,1.5-3.9,2.47-5.75a.28.28,0,0,1,.1-.14s1.12-3.31,1.6-4.2c.33.8,1.8,4.59,2.61,6.42,2-3.33,1.7-3.14,2-4.12C801.32,95.43,802.78,104.85,803.33,106.5Z"/><path class="cls-15" d="M790.37,126.25a66,66,0,0,1,7.71,4.92l8.54,3.18,18.54,11-6.57,14.33-43.44-6.37-1.27-10.76-12.52-2.19a40.44,40.44,0,0,1-6.5,3.7c-.21.1-4.1,7.45-4.1,7.45l-4.18,15-3,5.4-3.3-.95L734,166.51l-6-3.4-6.79,1.44-6.47-10.62-7.51-5-10.78.09c2-2.07-2,2.08,0,0,4.65-4.82,7.48-11.37,12.08-16.23,5.19-5.48,8.64-12.42,13.7-18,4-4.42,8.48-8.88,11.61-14,.18-.29.36-.59.53-.89,1.59-2.76,2.84-5.68,4.52-8.39a3.17,3.17,0,0,1,.82-1c1.08-.76,2,.41,2.49,1.22,2.77,4.31,4.16,12.83,8.52,11.46,1.6-.5,3.24-.82,4.88-1.18a8,8,0,0,0,1.86-.56,4.79,4.79,0,0,1,1.4-.68c.21.26,0,.06.19.29,1.11,1.77.47,4.75,2,6.33A22.22,22.22,0,0,0,765,110c2.35,1.54,4.72,3.06,7.08,4.58,1.55,1,2.77,2.83,4.31,3.86C780.87,121.4,785.69,123.64,790.37,126.25Z"/><path d="M748.75,163.11c-.15,15.53-.42,17.39.7,19.57,1,2,2.95,4.47,11.91,12.93l-.41,3c-6.57,1.3-8.89,0-16.47-.37-3.47-.19-7.32.93-11.3.29-9.14-2.42-6-1.14-9-9.14-.75-2.49,1.26-6.49,1.05-8.25-.71-6-.26-9.28-3.36-16.14,0,0-5.91-13.91-15.3-16.22-7.31-1.44-8.46-1.62-8.46-1.62s13.76-7.33,18.81-10.14c4-2.25,11.58-2.13,17.18-2.72,0,0,6.47,11.62,9.1,2.87s5.7,14.37,18.19,3.1c0,0-13.93,4.42-12.61,22.82"/><path class="cls-12" d="M821,156l-1.33,3.2-2.24,11.69L815,172.67l-3.63,2.68-16.59,2-14.53-7.93-2.42-4.14-1.36-5.3-1.34-6.69s18.43-3.82,19.29-4.4,6.17,8,13.52,5.57,15.13-5.57,15.13-5.57Z"/><path class="cls-16" d="M792.86,175.23c10.71,1.42,16.55-2.71,24.83-5l-.78,8.8-21.25.44Z"/><path d="M778.08,161.31c3,1.89,5.95,3.86,8.88,5.85,2.21,1.51,4.14,3.33,6.47,4.67,4.89,2.82,10,3.26,15.51,3.83,2.48.26,6.31,1.35,8.24-.83l.19-.1s-.43,9.59-.22,14.53c-.64,4.84,1,7.25,1,7.25l3.92,2.61,7.2,5.2,3.17,3.23v2.26l-4.18.9s-6.27,0-7.77.63-14.43-.22-19.94-1.26-6.07-3.05-6.07-3.05-1.28-5.28-2.08-8.36S785,185.6,785,185.6l-3.12-8.24-1.07-5.09-1.37-5.35-1.32-5.61"/><path class="cls-17" d="M666.43,183.59c3.48,6.76,4.08,7.15,5.52,14.6a5,5,0,0,0,1,2.55,4.6,4.6,0,0,0,1.85,1c10.52,3.71,23,3.06,33.91,1.73,4.65-.57.16-4.77-1.47-6.16a55.83,55.83,0,0,0-5.09-3.82c-1.84-1.24-3.44-2-4.38-4.12-.11-.26-.22-.53-.32-.8-3.23-8.51-2.18-9.94-3.15-18.87a42.28,42.28,0,0,1-.29-7.87,40.18,40.18,0,0,1,3.49-14,.65.65,0,0,1,.23-.31.74.74,0,0,1,.39-.05,38.1,38.1,0,0,1,8.43,1.27,20.7,20.7,0,0,1,6.34,3.16,20.19,20.19,0,0,1,4.42,4.62,27.85,27.85,0,0,1,2.94,5.62,48.53,48.53,0,0,1,1.92,6.14c.52,2,.94,4.12,1.36,6.19s.77,3.86,1.24,5.78c.18.74.37,1.48.6,2.21,0,0-7.41,17.74,14.27,15.85,6-.52,11.92.62,17.89.71,1.27,0,3.17.06,4.14-.92,2.86-2.93-5.85-9.39-7.61-11-3.29-3-5.32-6.22-5.78-10.69-.51-4.86,0-9.74.49-14.58s1.29-10.45,4-14.78c.58-.93,8-8.7,10.14-6.36.46.51,11,1.12,11,1.8-.33,10,3.32,18.47,5.1,28,.87,4.72,3.12,8.54,5.38,12.73.47.88.95,1.77,1.41,2.66,3.48,6.76,5.66,10.9,7.09,18.35a5,5,0,0,0,1,2.55,4.6,4.6,0,0,0,1.85,1c10.52,3.71,23,3.06,33.91,1.73,7.73-.94-7.67-10.83-9.33-11.74a11,11,0,0,1-2.62-1.73,7.58,7.58,0,0,1-1.8-5.38c0-18,.49-35.73,12.22-50.65,3.58-4.56,7.41-8.73,10.41-13.73.79-1.3,1.72-2.77,3.23-3,4.12-.74,6.69,4.64,7.81,7.63A35,35,0,0,1,851.46,144c-.12,6.05-1,12-1.34,18.06-.27,4.72,0,9.61,2.13,13.87,1.13,2.33,2.76,4.39,4,6.65,3.55,6.28,1,13.43.73,20.18a2.94,2.94,0,0,0,.67,2.43,3,3,0,0,0,1.59.51c5.68.71,11.36,1.42,17.08,1.7,6,.3,12,.13,18,0a2.27,2.27,0,0,0,1.24-.28c1-.71.26-2.31-.63-3.2a35.1,35.1,0,0,0-7.38-5.67c-2-1.14-4.1-2.14-5.48-3.92a9.27,9.27,0,0,1-1.61-6.61,27.74,27.74,0,0,1,1.84-6.71q5.91-16.14,11.59-32.37c3.59-10.27,7.56-20.26,8.85-31.08.27-2.29.29-5-1.48-6.48-.62-.53-1.4-.85-2-1.36-2.13-1.75.26-3.8,2.26-2.47,1.55,1,2,3.45,4,3.84,1.55.29,3-1,4.57-1,1.8.08,2.61,1.65,3.58,2.88a23.3,23.3,0,0,0,3.92,3.83,38.41,38.41,0,0,0,9.35,5.16c1.08.44,4.36,2.28,5.53,2.07,8.2-1.51,16.58-11.12,13.64-19.58a63.08,63.08,0,0,1-3-11.06,1.31,1.31,0,0,1,0-.59,1.37,1.37,0,0,1,.46-.58c3.8-3.34,8.46-7.08,9.33-12.35a35,35,0,0,0,0-7.45,96.32,96.32,0,0,1,0-10.88,24.55,24.55,0,0,1,2.26-8.31,18.08,18.08,0,0,0,.73-9c-.74-5.15-8-4.73-10.43-4.84-4,0-7.88-2.28-11.42-3.14a30,30,0,0,1-5.5-2c-.62-.29-1.26-.56-1.9-.8-6.36-2.41-12.87-4.37-19.24-6.7A111.18,111.18,0,0,1,897,22.28c-2.79-1.35-5.36-3.06-8.11-4.46s-5.53-2.82-8.14-4.49C871.61,7.49,861.43,1.93,850.21,2c-8.24,0-16.1,3.18-23.93,5.72a178.29,178.29,0,0,1-20.89,5.38c-6.43,1.25-12.83-.28-19.33-.75a231.54,231.54,0,0,0-27.75-.63c-18.27.87-36.74,5.26-51,17.08C697.41,37,690.61,48,685.56,59.52c-5.13,11.73-9.68,24.38-10.62,37.19-.05.73-.09,1.47-.12,2.21-.34,8.76,2.42,16.78,1.53,25.54-.8,7.91-4.59,15.56-8.18,22.47-3.19,6.13-5.08,13-4.48,20,.27,3.11.24,6.24.6,9.34.3,2.65,1.49,5,2.19,7.52"/><path class="cls-18" d="M736.9,198.48c-3.47,0-7.09-.47-10-2.42a.78.78,0,0,1-.41-.5.81.81,0,0,1,.22-.54c1.49-2,3.07-4.07,5.31-5.14s4.86-1,6.86-2.44a13.78,13.78,0,0,0,2.9-3.24c.34-.45.84-1.37,1.41-1.44s1.28.72,1.63,1.14c2,2.35,4.24,4.73,7.23,5.42a33.75,33.75,0,0,1,4.27.76c1.81.68,3.08,2.29,4.26,3.84a2.58,2.58,0,0,1,.74,1.79,2.17,2.17,0,0,1-1.15,1.44,8.93,8.93,0,0,1-3.83,1.1c-3,.28-6-.23-9.06-.29C743.84,197.9,740.39,198.44,736.9,198.48Z"/></g></g></svg>